# xmcd CD database file
#
# Track frame offsets:
#	150
#	11962
#	23622
#	42600
#	64877
#	81457
#	100810
#	112337
#	136062
#	155212
#	170650
#	187870
#	210275
#	225252
#	249117
#	268990
#	296130
#	319915
#
# Disc length: 4478 seconds
#
# Revision: 0
# Processed by: cddbd v1.4PL0 Copyright (c) Steve Scherf et al.
# Submitted via: CD2WAV32(EN) R3.19
#
DISCID=05117c12
DTITLE=Clarence "Gatemouth" Brown - Hot-Club Drive
DYEAR=1900
DGENRE=
TTITLE0=New Okie Dookie Stomp
TTITLE1=Hot-Club Drive
TTITLE2=Salt Pork West Virginia
TTITLE3=Cold Storage
TTITLE4=Pressure Cooker
TTITLE5=Goin' To Chicago
TTITLE6=Honey Boy
TTITLE7=Willow Weep For Me
TTITLE8=Long Way Home
TTITLE9=Here Am I
TTITLE10=Just Lipping
TTITLE11=Heat Wave
TTITLE12=One Level Below Plant Life
TTITLE13=Long Way Home
TTITLE14=Lover Call
TTITLE15=It's Mean
TTITLE16=Someday
TTITLE17=Honey Boy
EXTD=
EXTT0=
EXTT1=
EXTT2=
EXTT3=
EXTT4=
EXTT5=
EXTT6=
EXTT7=
EXTT8=
EXTT9=
EXTT10=
EXTT11=
EXTT12=
EXTT13=
EXTT14=
EXTT15=
EXTT16=
EXTT17=
PLAYORDER=
